<?xml version="1.0" encoding="UTF-8"?>
<svg height="16px" viewBox="0 0 16 16" width="16px" xmlns="http://www.w3.org/2000/svg">
  <path
    d="m 6.5078125 1 c -3.027343 0 -5.5078125 2.472656 -5.5078125 5.5 s 2.4804695 5.5 5.5078125 5.5 c 1.1548238 0 2.2295554 -0.359503 3.1171875 -0.972656 l 3.683594 3.679687 c 0.25 0.261719 0.625 0.367188 0.972656 0.273438 c 0.351562 -0.08984 0.625 -0.363281 0.714844 -0.714844 c 0.09375 -0.347656 -0.01172 -0.722656 -0.273438 -0.972656 l -3.683594 -3.6796878 c 0.612805 -0.8864471 0.972657 -1.9595416 0.972657 -3.1132812 c 0 -3.027344 -2.4765625 -5.5 -5.5039065 -5.5 z m 0 2 c 1.945313 0 3.5039065 1.554688 3.5039065 3.5 s -1.5585935 3.5 -3.5039065 3.5 c -1.949218 0 -3.5039063 -1.554688 -3.5039063 -3.5 s 1.5546883 -3.5 3.5039063 -3.5 z m -1.9511719 2.9746094 a 0.2553969 0.2553969 0 0 0 -0.2558594 0.2539062 v 0.5898438 a 0.2553969 0.2553969 0 0 0 0.2558594 0.2558594 h 3.890625 a 0.2553969 0.2553969 0 0 0 0.2558594 -0.2558594 v -0.5898438 a 0.2553969 0.2553969 0 0 0 -0.2558594 -0.2539062 z"
    fill="#222222" />
</svg>