<?xml version="1.0" encoding="UTF-8" standalone="no"?>
<!-- Created with Inkscape (http://www.inkscape.org/) -->

<svg
   width="128.00002"
   height="127.99999"
   viewBox="0 0 33.866671 33.866665"
   version="1.1"
   id="svg1"
   inkscape:version="1.4 (e7c3feb100, 2024-10-09)"
   sodipodi:docname="app-icon-grid.svg"
   xml:space="preserve"
   xmlns:inkscape="http://www.inkscape.org/namespaces/inkscape"
   xmlns:sodipodi="http://sodipodi.sourceforge.net/DTD/sodipodi-0.dtd"
   xmlns="http://www.w3.org/2000/svg"
   xmlns:svg="http://www.w3.org/2000/svg"><sodipodi:namedview
     id="namedview1"
     pagecolor="#ffffff"
     bordercolor="currentColor"
     borderopacity="0.25"
     inkscape:showpageshadow="2"
     inkscape:pageopacity="0.0"
     inkscape:pagecheckerboard="0"
     inkscape:deskcolor="#d1d1d1"
     inkscape:document-units="px"
     inkscape:zoom="4"
     inkscape:cx="87"
     inkscape:cy="76.125"
     inkscape:window-width="1384"
     inkscape:window-height="957"
     inkscape:window-x="26"
     inkscape:window-y="23"
     inkscape:window-maximized="0"
     inkscape:current-layer="layer2" /><defs
     id="defs1" /><g
     inkscape:groupmode="layer"
     id="layer2"
     inkscape:label="Layer 2"><g
       id="g12"
       transform="matrix(0.05103047,0,0,0.05457169,3.968749,4.0464045)">
	<polygon
   style="fill:#c0874a"
   points="255.701,334.207 247.753,329.232 246.299,328.284 66.659,215.516 54.439,207.856 0.598,174.057 0,173.663 54.439,139.469 249.548,16.988 261.854,16.988 458.244,140.258 464.74,144.365 511.401,173.663 502.513,179.269 458.244,207.066 268.606,326.073 266.213,327.652 265.699,327.968 256.043,334.048 "
   id="polygon1" />
	<path
   style="fill:#69b25f"
   d="m 467.859,16.065 v 383.862 c 0,8.807 -7.88,15.985 -17.641,15.985 H 62.29 c -9.671,0 -17.551,-7.178 -17.551,-15.985 V 16.065 C 44.739,7.176 52.619,0 62.29,0 h 387.928 c 9.76,0 17.641,7.176 17.641,16.065 z"
   id="path1" />
	<g
   id="g9">
		<g
   id="g2">
			<rect
   x="110.787"
   y="75.100998"
   style="fill:#a2cc86"
   width="190.508"
   height="25.378"
   id="rect1" />
			<rect
   x="110.787"
   y="71.093002"
   style="fill:#53a654"
   width="190.508"
   height="25.378"
   id="rect2" />
		</g>
		<g
   id="g4">
			<rect
   x="110.787"
   y="214.68201"
   style="fill:#a2cc86"
   width="289.50101"
   height="25.378"
   id="rect3" />
			<rect
   x="110.787"
   y="210.675"
   style="fill:#53a654"
   width="289.50101"
   height="25.378"
   id="rect4" />
		</g>
		<g
   id="g6">
			<rect
   x="110.787"
   y="284.47299"
   style="fill:#a2cc86"
   width="289.50101"
   height="25.378"
   id="rect5" />
			<rect
   x="110.787"
   y="280.466"
   style="fill:#53a654"
   width="289.50101"
   height="25.378"
   id="rect6" />
		</g>
		<g
   id="g8">
			<rect
   x="110.787"
   y="144.89101"
   style="fill:#a2cc86"
   width="289.50101"
   height="25.378"
   id="rect7" />
			<rect
   x="110.787"
   y="140.884"
   style="fill:#53a654"
   width="289.50101"
   height="25.378"
   id="rect8" />
		</g>
	</g>
	<polygon
   style="fill:#f0ba7d"
   points="71.446,214.169 246.642,316.464 248.009,317.272 256.043,321.971 256.299,322.118 253.308,323.881 195.45,357.662 188.356,361.847 12.392,464.583 0.598,471.413 0.598,172.824 "
   id="polygon9" />
	<g
   id="g10">
		<path
   style="fill:#e5a864"
   d="m 510.236,167.293 c 0.97,-0.567 1.764,-0.111 1.764,1.013 v 294.576 c 0,1.124 -0.019,2.027 -0.043,2.006 -0.024,-0.021 -0.139,-0.103 -0.257,-0.184 -0.118,-0.081 -0.291,-0.197 -0.385,-0.257 -0.094,-0.061 -0.19,-0.11 -0.214,-0.11 -0.024,0 -0.837,-0.464 -1.807,-1.03 L 265.498,320.993 c -0.97,-0.566 -2.556,-1.497 -3.524,-2.068 l -0.839,-0.495 c -0.968,-0.571 -2.452,-1.451 -3.298,-1.956 -0.846,-0.505 -0.743,-1.379 0.229,-1.944 l 6.209,-3.604 c 0.972,-0.564 1.825,-1.059 1.895,-1.099 0.071,-0.04 0.186,-0.107 0.257,-0.147 0.071,-0.04 0.923,-0.535 1.895,-1.1 l 5.44,-3.161 c 0.972,-0.564 2.56,-1.49 3.531,-2.057 z"
   id="path9" />
	</g>
	<circle
   style="opacity:0.68;fill:#eef3ca"
   cx="377.142"
   cy="75.100998"
   r="38.186001"
   id="circle10" />
	<path
   style="fill:#c0874a"
   d="m 512,425.251 v 45.808 h -0.513 l -7.35,0.342 H 27.689 l -0.341,-7.094 C 35.98,458.411 47.43,450.462 54.866,445.42 l 1.025,-0.684 24.956,-17.178 38.97,-26.92 11.28,-7.777 118.365,-81.615 7.947,-5.556 c 1.88,-1.195 4.017,-2.222 6.324,-2.904 2.735,-0.941 5.726,-1.539 8.717,-1.795 1.025,-0.086 1.965,-0.171 2.991,-0.086 1.025,-0.171 2.052,-0.171 3.077,-0.171 2.735,-0.085 5.385,0.171 7.948,0.683 2.734,0.513 5.213,1.369 7.435,2.564 l 89.735,49.91 44.354,24.697 11.538,6.41 41.79,23.245 27.518,15.298 c 0.77,0.428 1.624,0.855 2.479,1.368 0.172,0.086 0.428,0.257 0.685,0.342 z"
   id="path10" />
	<path
   style="fill:#ecb168"
   d="m 512,441.404 v 29.997 H 0.598 v -29.997 c 8.974,-5.471 20.768,-12.905 28.459,-17.52 l 1.025,-0.684 25.724,-15.98 40.252,-24.955 11.623,-7.264 122.125,-75.805 8.204,-5.127 c 4.273,-2.564 9.828,-3.846 15.298,-3.932 1.025,-0.086 1.965,-0.086 2.991,0 1.026,-0.086 2.051,-0.086 3.077,0 2.393,0 4.701,0.257 6.923,0.769 3.077,0.599 5.896,1.71 8.29,3.163 l 11.879,7.349 75.377,46.834 43.073,26.75 11.196,7.007 40.68,25.212 26.748,16.665 c 0.77,0.428 1.539,0.854 2.393,1.367 5.47,3.505 12.477,7.864 19.058,11.88 2.392,1.536 4.785,2.989 7.007,4.271 z"
   id="path11" />
	<path
   style="opacity:0.2;fill:#badb9e"
   d="m 467.816,16.066 v 4.273 c 0,-8.887 -7.863,-16.066 -17.605,-16.066 H 62.301 c -9.656,0 -17.604,7.178 -17.604,16.066 V 16.066 C 44.696,7.178 52.645,0 62.301,0 h 387.911 c 9.741,0 17.604,7.178 17.604,16.066 z"
   id="path12" />
</g></g></svg>
