<?xml version="1.0" encoding="UTF-8" standalone="no"?>
<svg
   height="16px"
   viewBox="0 0 16 16"
   width="16px"
   version="1.1"
   id="svg2"
   sodipodi:docname="inkscape-loupe.svg"
   xml:space="preserve"
   inkscape:version="1.4 (e7c3feb100, 2024-10-09)"
   inkscape:export-filename="loupe-minus.svg"
   inkscape:export-xdpi="96"
   inkscape:export-ydpi="96"
   xmlns:inkscape="http://www.inkscape.org/namespaces/inkscape"
   xmlns:sodipodi="http://sodipodi.sourceforge.net/DTD/sodipodi-0.dtd"
   xmlns="http://www.w3.org/2000/svg"
   xmlns:svg="http://www.w3.org/2000/svg"><defs
     id="defs2"><inkscape:path-effect
       effect="fillet_chamfer"
       id="path-effect3"
       is_visible="true"
       lpeversion="1"
       nodesatellites_param="F,0,0,1,0,0.25637198,0,1 @ F,0,1,1,0,0.25637198,0,1 @ F,0,1,1,0,0.25637198,0,1 @ F,0,1,1,0,0.25637198,0,1 @ F,0,1,1,0,0.25637198,0,1 @ F,0,1,1,0,0.25637198,0,1 @ F,0,1,1,0,0.25637198,0,1 @ F,0,1,1,0,0.25637198,0,1 @ F,0,1,1,0,0.25637198,0,1 @ F,0,1,1,0,0.25637198,0,1 @ F,0,1,1,0,0.25637198,0,1 @ F,0,1,1,0,0.25637198,0,1"
       radius="0"
       unit="px"
       method="auto"
       mode="F"
       chamfer_steps="1"
       flexible="false"
       use_knot_distance="true"
       apply_no_radius="true"
       apply_with_radius="true"
       only_selected="false"
       hide_knots="false" /><inkscape:path-effect
       effect="fillet_chamfer"
       id="path-effect2"
       is_visible="true"
       lpeversion="1"
       nodesatellites_param="F,0,1,1,0,0.2553969,0,1 @ F,0,0,1,0,0.2553969,0,1 @ F,0,1,1,0,0.2553969,0,1 @ F,0,1,1,0,0.2553969,0,1"
       radius="0"
       unit="px"
       method="auto"
       mode="F"
       chamfer_steps="1"
       flexible="false"
       use_knot_distance="true"
       apply_no_radius="true"
       apply_with_radius="true"
       only_selected="false"
       hide_knots="false" /></defs><sodipodi:namedview
     id="namedview2"
     pagecolor="#ffffff"
     bordercolor="#000000"
     borderopacity="0.25"
     inkscape:showpageshadow="2"
     inkscape:pageopacity="0.0"
     inkscape:pagecheckerboard="0"
     inkscape:deskcolor="#d1d1d1"
     showgrid="false"
     inkscape:zoom="47.8125"
     inkscape:cx="5.8562092"
     inkscape:cy="9.8823529"
     inkscape:window-width="1920"
     inkscape:window-height="957"
     inkscape:window-x="0"
     inkscape:window-y="0"
     inkscape:window-maximized="1"
     inkscape:current-layer="svg2" /><path
     d="m 5.9712171,4.6538878 v 1.0896803 a 0.25637198,0.25637198 135 0 1 -0.256372,0.256372 H 4.6251648 a 0.25637198,0.25637198 135 0 0 -0.256372,0.256372 V 6.811851 a 0.25637198,0.25637198 45 0 0 0.256372,0.256372 h 1.0896803 a 0.25637198,0.25637198 45 0 1 0.256372,0.256372 v 1.0896802 a 0.25637198,0.25637198 45 0 0 0.256372,0.256372 H 6.783128 A 0.25637198,0.25637198 135 0 0 7.0395,8.4142752 V 7.324595 A 0.25637198,0.25637198 135 0 1 7.295872,7.068223 H 8.3855522 A 0.25637198,0.25637198 135 0 0 8.6419242,6.811851 V 6.2563121 A 0.25637198,0.25637198 45 0 0 8.3855522,5.9999401 H 7.295872 A 0.25637198,0.25637198 45 0 1 7.0395,5.7435681 l 0,-1.0896803 A 0.25637198,0.25637198 45 0 0 6.783128,4.3975158 H 6.2275891 a 0.25637198,0.25637198 135 0 0 -0.256372,0.256372 z"
     style="display:none;fill:#222222;stroke-width:0.534142"
     id="path1-5"
     inkscape:original-d="M 5.9712171,4.3975158 V 5.9999401 H 4.3687928 V 7.068223 H 5.9712171 V 8.6706472 H 7.0395 V 7.068223 H 8.6419242 V 5.9999401 H 7.0395 V 4.3975158 Z"
     inkscape:path-effect="#path-effect3"
     inkscape:label="plus" /><path
     d="M 4.3006536,6.2291306 V 6.8189904 A 0.2553969,0.2553969 45 0 0 4.5560505,7.0743873 H 8.4478709 A 0.2553969,0.2553969 135 0 0 8.7032678,6.8189904 V 6.2291306 A 0.2553969,0.2553969 45 0 0 8.4478709,5.9737337 H 4.5560505 A 0.2553969,0.2553969 135 0 0 4.3006536,6.2291306 Z"
     style="display:inline;fill:#222222;stroke-width:0.550327"
     id="path1-6"
     inkscape:original-d="M 4.3006536,5.9737337 V 7.0743873 H 8.7032678 V 5.9737337 Z"
     inkscape:path-effect="#path-effect2"
     inkscape:label="minus" /><path
     id="path1"
     d="M 6.5078125 1 C 3.4804695 1 1 3.472656 1 6.5 C 1 9.527344 3.4804695 12 6.5078125 12 C 7.6626363 12 8.7373679 11.640497 9.625 11.027344 L 13.308594 14.707031 C 13.558594 14.96875 13.933594 15.074219 14.28125 14.980469 C 14.632812 14.890625 14.90625 14.617188 14.996094 14.265625 C 15.089844 13.917969 14.984375 13.542969 14.722656 13.292969 L 11.039062 9.6132812 C 11.651867 8.7268341 12.011719 7.6537396 12.011719 6.5 C 12.011719 3.472656 9.5351565 1 6.5078125 1 z M 6.5078125 3 C 8.4531255 3 10.011719 4.554688 10.011719 6.5 C 10.011719 8.445312 8.4531255 10 6.5078125 10 C 4.5585945 10 3.0039062 8.445312 3.0039062 6.5 C 3.0039062 4.554688 4.5585945 3 6.5078125 3 z "
     inkscape:label="loupe" /></svg>
